<svg width="643" height="75" viewBox="0 0 643 75" fill="none" xmlns="http://www.w3.org/2000/svg">
<mask id="path-1-outside-1_722_1294" maskUnits="userSpaceOnUse" x="0" y="0" width="643" height="75" fill="black">
<rect fill="white" width="643" height="75"/>
<path d="M97.4096 71.8611H74.8911L68.651 60.051H30.7585L24.5185 71.8611H2L38.2647 3.04586H61.1449L97.4096 71.8611ZM49.75 24.0624L38.8977 44.521H60.5118L49.75 24.0624Z"/>
<path d="M175.872 37.5465C175.872 44.056 174.183 49.9146 170.807 55.1223C167.491 60.3299 162.758 64.4217 156.609 67.3974C150.459 70.3732 143.315 71.8611 135.176 71.8611V71.9541H117.179V71.8611H99.3631V3.04586H135.085C143.224 3.04586 150.369 4.53376 156.518 7.50955C162.728 10.4853 167.491 14.5771 170.807 19.7847C174.183 24.9924 175.872 30.9129 175.872 37.5465ZM135.628 53.4484C140.873 53.4484 145.214 52.1465 148.651 49.5427C152.147 46.8769 153.896 42.8781 153.896 37.5465C153.896 34.5707 153.052 31.8739 151.364 29.456C149.675 26.9762 147.415 25.0543 144.581 23.6904C141.808 22.2645 138.823 21.5516 135.628 21.5516H121.701V53.4484H135.628Z"/>
<path d="M218.569 50.1006L243.619 3.04586H266.228L230.958 71.8611H205.636L170.638 3.04586H194.874L218.569 50.1006Z"/>
<path d="M292.327 71.8611H269.99V3.04586H292.327V71.8611Z"/>
<path d="M348.768 30.9439C354.677 30.9439 359.832 31.3779 364.233 32.2459C368.694 33.0518 372.402 34.8187 375.356 37.5465C378.371 40.2743 379.878 44.242 379.878 49.4497C379.878 59.059 375.718 65.5686 367.398 68.9783C359.138 72.3261 349.853 74 339.544 74C329.294 74 319.799 72.2951 311.057 68.8853C302.314 65.4136 297.943 58.842 297.943 49.1707L321.005 49.0777C321.005 53.3554 322.874 56.0832 326.612 57.2611C330.41 58.3771 334.841 58.935 339.906 58.935C344.669 58.935 348.738 58.2221 352.114 56.7962C355.551 55.3703 357.269 53.0454 357.269 49.8217V49.7287C357.269 47.9308 356.214 46.5979 354.104 45.7299C351.994 44.862 349.733 44.335 347.321 44.149C344.91 43.9631 342.016 43.8391 338.639 43.7771H331.857C325.345 43.7771 319.678 43.3741 314.855 42.5681C310.092 41.7002 306.083 39.8403 302.827 36.9885C299.571 34.1367 297.943 29.921 297.943 24.3414C297.943 14.6701 302.164 8.37749 310.604 5.46369C319.105 2.4879 328.752 1 339.544 1C349.673 1 358.927 2.70488 367.308 6.11465C375.688 9.52442 379.878 16.096 379.878 25.8293H357.179C357.179 22.7295 355.46 20.4357 352.024 18.9478C348.648 17.3979 344.518 16.5299 339.634 16.3439C334.389 16.3439 329.958 16.9639 326.34 18.2038C322.723 19.4437 320.914 21.3966 320.914 24.0624C320.914 26.8522 322.753 28.7121 326.431 29.642C330.108 30.572 334.268 31.0369 338.911 31.0369L348.768 30.9439Z"/>
<path d="M427.56 1.55796C435.819 1.55796 443.265 3.13885 449.897 6.30063C456.589 9.40042 461.805 13.7091 465.543 19.2267C469.341 24.6824 471.24 30.851 471.24 37.7325C471.24 44.552 469.341 50.6896 465.543 56.1452C461.805 61.6008 456.62 65.9095 449.988 69.0713C443.356 72.1711 435.91 73.721 427.65 73.721C419.692 73.721 412.336 72.1711 405.584 69.0713C398.831 65.9095 393.465 61.6008 389.486 56.1452C385.567 50.6276 383.608 44.49 383.608 37.7325C383.608 30.9129 385.567 24.7444 389.486 19.2267C393.465 13.7091 398.801 9.40042 405.493 6.30063C412.246 3.13885 419.601 1.55796 427.56 1.55796ZM427.65 56.3312C431.026 56.3312 434.252 55.5873 437.327 54.0994C440.462 52.6115 442.994 50.4726 444.923 47.6828C446.853 44.893 447.817 41.5762 447.817 37.7325C447.817 33.8887 446.822 30.572 444.833 27.7822C442.903 24.9304 440.371 22.7915 437.236 21.3656C434.101 19.8777 430.845 19.1338 427.469 19.1338C424.033 19.1338 420.777 19.8777 417.702 21.3656C414.627 22.8535 412.125 25.0234 410.196 27.8752C408.327 30.665 407.392 33.9507 407.392 37.7325C407.392 41.5762 408.357 44.893 410.286 47.6828C412.216 50.4726 414.718 52.6115 417.793 54.0994C420.928 55.5873 424.213 56.3312 427.65 56.3312Z"/>
<path d="M530.456 71.7681L511.917 49.5427H498.08V71.7681H476.737V2.95286H527.291C532.898 2.95286 537.842 3.9138 542.122 5.83567C546.463 7.75754 549.809 10.4544 552.161 13.9261C554.572 17.3359 555.778 21.3036 555.778 25.8293V26.2013C555.778 32.0909 554.09 36.9575 550.714 40.8013C547.398 44.645 542.786 47.2178 536.877 48.5197L556.321 71.7681H530.456ZM534.797 26.3873C534.797 23.9694 534.285 22.2025 533.26 21.0866C532.295 19.9707 531.029 19.2887 529.461 19.0408C527.894 18.7928 525.603 18.6688 522.588 18.6688H519.333C514.871 18.7928 507.787 18.8548 498.08 18.8548V33.6408H522.588C525.603 33.6408 527.894 33.5168 529.461 33.2688C531.029 33.0208 532.295 32.4008 533.26 31.4089C534.285 30.355 534.797 28.6811 534.797 26.3873Z"/>
<path d="M610.89 30.9439C616.799 30.9439 621.954 31.3779 626.355 32.2459C630.816 33.0518 634.524 34.8187 637.478 37.5465C640.493 40.2743 642 44.242 642 49.4497C642 59.059 637.84 65.5686 629.52 68.9783C621.26 72.3261 611.975 74 601.666 74C591.416 74 581.921 72.2951 573.179 68.8853C564.436 65.4136 560.065 58.842 560.065 49.1707L583.126 49.0777C583.126 53.3554 584.995 56.0832 588.733 57.2611C592.532 58.3771 596.963 58.935 602.027 58.935C606.79 58.935 610.86 58.2221 614.236 56.7962C617.673 55.3703 619.391 53.0454 619.391 49.8217V49.7287C619.391 47.9308 618.336 46.5979 616.226 45.7299C614.116 44.862 611.855 44.335 609.443 44.149C607.032 43.9631 604.138 43.8391 600.761 43.7771H593.979C587.467 43.7771 581.8 43.3741 576.977 42.5681C572.214 41.7002 568.205 39.8403 564.949 36.9885C561.693 34.1367 560.065 29.921 560.065 24.3414C560.065 14.6701 564.286 8.37749 572.726 5.46369C581.227 2.4879 590.874 1 601.666 1C611.795 1 621.049 2.70488 629.429 6.11465C637.81 9.52442 642 16.096 642 25.8293H619.301C619.301 22.7295 617.582 20.4357 614.146 18.9478C610.77 17.3979 606.64 16.5299 601.756 16.3439C596.511 16.3439 592.08 16.9639 588.462 18.2038C584.845 19.4437 583.036 21.3966 583.036 24.0624C583.036 26.8522 584.875 28.7121 588.553 29.642C592.23 30.572 596.39 31.0369 601.033 31.0369L610.89 30.9439Z"/>
</mask>
<path d="M207.434 72.0961L244.061 3.28078L243.178 2.81094L206.551 71.6262L207.434 72.0961ZM97.4096 71.8611V72.8611H99.0669L98.2942 71.3949L97.4096 71.8611ZM74.8911 71.8611L74.0069 72.3283L74.2885 72.8611H74.8911V71.8611ZM68.651 60.051L69.5352 59.5838L69.2537 59.051H68.651V60.051ZM30.7585 60.051V59.051H30.1559L29.8744 59.5838L30.7585 60.051ZM24.5185 71.8611V72.8611H25.1211L25.4026 72.3283L24.5185 71.8611ZM2 71.8611L1.11533 71.3949L0.342654 72.8611H2V71.8611ZM38.2647 3.04586V2.04586H37.6613L37.38 2.57965L38.2647 3.04586ZM61.1449 3.04586L62.0296 2.57965L61.7483 2.04586H61.1449V3.04586ZM49.75 24.0624L50.635 23.5969L49.7537 21.9214L48.8666 23.5938L49.75 24.0624ZM38.8977 44.521L38.0143 44.0524L37.2353 45.521H38.8977V44.521ZM60.5118 44.521V45.521H62.1678L61.3969 44.0555L60.5118 44.521ZM170.807 55.1223L169.968 54.5783L169.964 54.5852L170.807 55.1223ZM135.176 71.8611V70.8611H134.176V71.8611H135.176ZM135.176 71.9541V72.9541H136.176V71.9541H135.176ZM117.179 71.9541H116.179V72.9541H117.179V71.9541ZM117.179 71.8611H118.179V70.8611H117.179V71.8611ZM99.3631 71.8611H98.3631V72.8611H99.3631V71.8611ZM99.3631 3.04586V2.04586H98.3631V3.04586H99.3631ZM156.518 7.50955L156.083 8.40971L156.086 8.41136L156.518 7.50955ZM170.807 19.7847L169.964 20.3218L169.968 20.3287L170.807 19.7847ZM148.651 49.5427L149.254 50.3397L149.257 50.3379L148.651 49.5427ZM151.364 29.456L150.537 30.0188L150.544 30.0285L151.364 29.456ZM144.581 23.6904L144.124 24.5798L144.135 24.5858L144.147 24.5915L144.581 23.6904ZM121.701 21.5516V20.5516H120.701V21.5516H121.701ZM121.701 53.4484H120.701V54.4484H121.701V53.4484ZM243.619 3.04586V2.04586H243.019L242.736 2.57593L243.619 3.04586ZM218.569 50.1006L217.675 50.5504L218.544 52.275L219.451 50.5706L218.569 50.1006ZM266.228 3.04586L267.118 3.50197L267.864 2.04586H266.228V3.04586ZM230.958 71.8611V72.8611H231.569L231.848 72.3173L230.958 71.8611ZM205.636 71.8611L204.745 72.3145L205.023 72.8611H205.636V71.8611ZM170.638 3.04586V2.04586H169.007L169.746 3.49919L170.638 3.04586ZM194.874 3.04586L195.768 2.59612L195.49 2.04586H194.874V3.04586ZM292.327 71.8611V72.8611H293.327V71.8611H292.327ZM269.99 71.8611H268.99V72.8611H269.99V71.8611ZM269.99 3.04586V2.04586H268.99V3.04586H269.99ZM292.327 3.04586H293.327V2.04586H292.327V3.04586ZM348.768 30.9439L348.768 29.9439L348.759 29.944L348.768 30.9439ZM364.233 32.2459L364.039 33.227L364.047 33.2285L364.055 33.2299L364.233 32.2459ZM375.356 37.5465L374.678 38.2812L374.685 38.288L375.356 37.5465ZM367.398 68.9783L367.774 69.9051L367.777 69.9037L367.398 68.9783ZM311.057 68.8853L310.687 69.8148L310.693 69.817L311.057 68.8853ZM297.943 49.1707L297.939 48.1707L296.943 48.1747V49.1707H297.943ZM321.005 49.0777H322.005V48.0737L321 48.0777L321.005 49.0777ZM326.612 57.2611L326.311 58.2149L326.32 58.2178L326.33 58.2206L326.612 57.2611ZM352.114 56.7962L351.731 55.8725L351.725 55.875L352.114 56.7962ZM354.104 45.7299L353.724 46.6548L353.724 46.6548L354.104 45.7299ZM347.321 44.149L347.244 45.1461L347.244 45.1461L347.321 44.149ZM338.639 43.7771L338.658 42.7772L338.649 42.7771H338.639V43.7771ZM314.855 42.5681L314.676 43.5519L314.683 43.5533L314.69 43.5545L314.855 42.5681ZM302.827 36.9885L302.168 37.7408L302.168 37.7408L302.827 36.9885ZM310.604 5.46369L310.931 6.40896L310.935 6.40753L310.604 5.46369ZM379.878 25.8293V26.8293H380.878V25.8293H379.878ZM357.179 25.8293H356.179V26.8293H357.179V25.8293ZM352.024 18.9478L351.607 19.8566L351.617 19.8611L351.627 19.8655L352.024 18.9478ZM339.634 16.3439L339.672 15.3447L339.653 15.3439H339.634V16.3439ZM326.431 29.642L326.676 28.6725L326.676 28.6725L326.431 29.642ZM338.911 31.0369L338.911 32.037L338.92 32.0369L338.911 31.0369ZM449.897 6.30063L449.467 7.20335L449.477 7.20802L449.897 6.30063ZM465.543 19.2267L464.715 19.7877L464.722 19.7981L465.543 19.2267ZM465.543 56.1452L464.722 55.5738L464.718 55.58L465.543 56.1452ZM449.988 69.0713L450.411 69.9773L450.418 69.974L449.988 69.0713ZM405.584 69.0713L405.16 69.977L405.167 69.9801L405.584 69.0713ZM389.486 56.1452L388.671 56.7243L388.678 56.7345L389.486 56.1452ZM389.486 19.2267L388.675 18.6418L388.671 18.6477L389.486 19.2267ZM405.493 6.30063L405.914 7.20803L405.917 7.20627L405.493 6.30063ZM437.327 54.0994L436.898 53.1959L436.891 53.1992L437.327 54.0994ZM444.923 47.6828L444.101 47.114L444.101 47.114L444.923 47.6828ZM444.833 27.7822L444.004 28.3425L444.011 28.3527L444.019 28.3628L444.833 27.7822ZM437.236 21.3656L436.807 22.269L436.815 22.2725L436.822 22.2759L437.236 21.3656ZM410.196 27.8752L409.368 27.3148L409.365 27.3186L410.196 27.8752ZM410.286 47.6828L411.109 47.114L411.109 47.114L410.286 47.6828ZM417.793 54.0994L417.357 54.9995L417.364 55.0028L417.793 54.0994ZM530.456 71.7681L529.688 72.4087L529.988 72.7681H530.456V71.7681ZM511.917 49.5427L512.685 48.9021L512.385 48.5427H511.917V49.5427ZM498.08 49.5427V48.5427H497.08V49.5427H498.08ZM498.08 71.7681V72.7681H499.08V71.7681H498.08ZM476.737 71.7681H475.737V72.7681H476.737V71.7681ZM476.737 2.95286V1.95286H475.737V2.95286H476.737ZM542.122 5.83567L541.713 6.74795L541.718 6.75006L542.122 5.83567ZM552.161 13.9261L551.333 14.4869L551.338 14.4953L551.344 14.5036L552.161 13.9261ZM550.714 40.8013L549.962 40.1413L549.957 40.1481L550.714 40.8013ZM536.877 48.5197L536.662 47.5432L535.053 47.8976L536.11 49.1613L536.877 48.5197ZM556.321 71.7681V72.7681H558.461L557.088 71.1266L556.321 71.7681ZM533.26 21.0866L532.503 21.7406L532.513 21.752L532.523 21.7631L533.26 21.0866ZM529.461 19.0408L529.305 20.0285L529.305 20.0285L529.461 19.0408ZM519.333 18.6688V17.6688H519.319L519.305 17.6692L519.333 18.6688ZM498.08 18.8548V17.8548H497.08V18.8548H498.08ZM498.08 33.6408H497.08V34.6408H498.08V33.6408ZM529.461 33.2688L529.305 32.2811L529.305 32.2811L529.461 33.2688ZM533.26 31.4089L532.543 30.7117L532.543 30.7117L533.26 31.4089ZM610.89 30.9439V29.9439L610.881 29.944L610.89 30.9439ZM626.355 32.2459L626.161 33.227L626.169 33.2285L626.177 33.2299L626.355 32.2459ZM637.478 37.5465L636.8 38.2812L636.807 38.288L637.478 37.5465ZM629.52 68.9783L629.896 69.9051L629.899 69.9037L629.52 68.9783ZM573.179 68.8853L572.809 69.8148L572.815 69.817L573.179 68.8853ZM560.065 49.1707L560.061 48.1707L559.065 48.1747V49.1707H560.065ZM583.126 49.0777H584.126V48.0737L583.122 48.0777L583.126 49.0777ZM588.733 57.2611L588.433 58.2149L588.442 58.2178L588.452 58.2206L588.733 57.2611ZM614.236 56.7962L613.853 55.8725L613.847 55.875L614.236 56.7962ZM616.226 45.7299L615.845 46.6548L615.845 46.6548L616.226 45.7299ZM609.443 44.149L609.366 45.1461L609.366 45.1461L609.443 44.149ZM600.761 43.7771L600.78 42.7772L600.771 42.7771H600.761V43.7771ZM576.977 42.5681L576.798 43.5519L576.805 43.5533L576.812 43.5545L576.977 42.5681ZM564.949 36.9885L564.29 37.7408L564.29 37.7408L564.949 36.9885ZM572.726 5.46369L573.053 6.40896L573.057 6.40753L572.726 5.46369ZM642 25.8293V26.8293H643V25.8293H642ZM619.301 25.8293H618.301V26.8293H619.301V25.8293ZM614.146 18.9478L613.729 19.8566L613.739 19.8611L613.749 19.8655L614.146 18.9478ZM601.756 16.3439L601.794 15.3447L601.775 15.3439H601.756V16.3439ZM588.553 29.642L588.798 28.6725L588.798 28.6725L588.553 29.642ZM601.033 31.0369V32.037L601.042 32.0369L601.033 31.0369ZM97.4096 70.8611H74.8911V72.8611H97.4096V70.8611ZM75.7753 71.394L69.5352 59.5838L67.7669 60.5181L74.0069 72.3283L75.7753 71.394ZM68.651 59.051H30.7585V61.051H68.651V59.051ZM29.8744 59.5838L23.6343 71.394L25.4026 72.3283L31.6427 60.5181L29.8744 59.5838ZM24.5185 70.8611H2V72.8611H24.5185V70.8611ZM2.88467 72.3274L39.1494 3.51207L37.38 2.57965L1.11533 71.3949L2.88467 72.3274ZM38.2647 4.04586H61.1449V2.04586H38.2647V4.04586ZM60.2602 3.51207L96.5249 72.3274L98.2942 71.3949L62.0296 2.57965L60.2602 3.51207ZM48.8666 23.5938L38.0143 44.0524L39.7811 44.9896L50.6334 24.531L48.8666 23.5938ZM38.8977 45.521H60.5118V43.521H38.8977V45.521ZM61.3969 44.0555L50.635 23.5969L48.865 24.528L59.6268 44.9866L61.3969 44.0555ZM174.872 37.5465C174.872 43.8729 173.234 49.5408 169.968 54.5783L171.646 55.6663C175.133 50.2885 176.872 44.2392 176.872 37.5465H174.872ZM169.964 54.5852C166.758 59.6199 162.174 63.5934 156.173 66.4973L157.044 68.2976C163.343 65.2499 168.225 61.0399 171.651 55.6594L169.964 54.5852ZM156.173 66.4973C150.183 69.396 143.193 70.8611 135.176 70.8611V72.8611C143.437 72.8611 150.735 71.3505 157.044 68.2976L156.173 66.4973ZM134.176 71.8611V71.9541H136.176V71.8611H134.176ZM135.176 70.9541H117.179V72.9541H135.176V70.9541ZM118.179 71.9541V71.8611H116.179V71.9541H118.179ZM117.179 70.8611H99.3631V72.8611H117.179V70.8611ZM100.363 71.8611V3.04586H98.3631V71.8611H100.363ZM99.3631 4.04586H135.085V2.04586H99.3631V4.04586ZM135.085 4.04586C143.102 4.04586 150.093 5.51103 156.083 8.4097L156.954 6.6094C150.645 3.55649 143.347 2.04586 135.085 2.04586V4.04586ZM156.086 8.41136C162.148 11.316 166.759 15.2895 169.964 20.3218L171.651 19.2476C168.223 13.8646 163.309 9.65469 156.951 6.60775L156.086 8.41136ZM169.968 20.3287C173.232 25.3631 174.872 31.0921 174.872 37.5465H176.872C176.872 30.7338 175.135 24.6216 171.646 19.2407L169.968 20.3287ZM135.628 54.4484C141.043 54.4484 145.609 53.1017 149.254 50.3397L148.047 48.7456C144.819 51.1912 140.703 52.4484 135.628 52.4484V54.4484ZM149.257 50.3379C153.055 47.4422 154.896 43.1161 154.896 37.5465H152.896C152.896 42.6402 151.239 46.3115 148.044 48.7474L149.257 50.3379ZM154.896 37.5465C154.896 34.3679 153.99 31.4709 152.184 28.8836L150.544 30.0285C152.113 32.2768 152.896 34.7735 152.896 37.5465H154.896ZM152.19 28.8933C150.398 26.261 147.999 24.2257 145.015 22.7894L144.147 24.5915C146.83 25.883 148.953 27.6915 150.537 30.0188L152.19 28.8933ZM145.038 22.8011C142.12 21.3006 138.978 20.5516 135.628 20.5516V22.5516C138.668 22.5516 141.495 23.2284 144.124 24.5798L145.038 22.8011ZM135.628 20.5516H121.701V22.5516H135.628V20.5516ZM120.701 21.5516V53.4484H122.701V21.5516H120.701ZM121.701 54.4484H135.628V52.4484H121.701V54.4484ZM219.451 50.5706L244.502 3.51579L242.736 2.57593L217.686 49.6307L219.451 50.5706ZM243.619 4.04586H266.228V2.04586H243.619V4.04586ZM265.338 2.58975L230.068 71.405L231.848 72.3173L267.118 3.50197L265.338 2.58975ZM230.958 70.8611H205.636V72.8611H230.958V70.8611ZM206.528 71.4078L171.529 2.59253L169.746 3.49919L204.745 72.3145L206.528 71.4078ZM170.638 4.04586H194.874V2.04586H170.638V4.04586ZM193.981 3.4956L217.675 50.5504L219.462 49.6509L195.768 2.59612L193.981 3.4956ZM292.327 70.8611H269.99V72.8611H292.327V70.8611ZM270.99 71.8611V3.04586H268.99V71.8611H270.99ZM269.99 4.04586H292.327V2.04586H269.99V4.04586ZM291.327 3.04586V71.8611H293.327V3.04586H291.327ZM348.768 31.9439C354.631 31.9439 359.718 32.3748 364.039 33.227L364.426 31.2648C359.945 30.381 354.723 29.9439 348.768 29.9439V31.9439ZM364.055 33.2299C368.354 34.0065 371.881 35.6984 374.678 38.2812L376.035 36.8118C372.923 33.939 369.035 32.0971 364.41 31.2618L364.055 33.2299ZM374.685 38.288C377.435 40.7761 378.878 44.4401 378.878 49.4497H380.878C380.878 44.044 379.307 39.7725 376.027 36.805L374.685 38.288ZM378.878 49.4497C378.878 54.11 377.87 57.9415 375.915 61.0004C373.964 64.0544 371.02 66.4131 367.019 68.053L367.777 69.9037C372.096 68.1338 375.392 65.5329 377.601 62.0773C379.806 58.6266 380.878 54.3987 380.878 49.4497H378.878ZM367.022 68.0516C358.899 71.344 349.745 73 339.544 73V75C349.962 75 359.377 73.3082 367.774 69.9051L367.022 68.0516ZM339.544 73C329.407 73 320.036 71.3143 311.42 67.9537L310.693 69.817C319.561 73.2759 329.182 75 339.544 75V73ZM311.426 67.956C307.207 66.2805 304.107 63.885 302.054 60.799C300 57.711 298.943 53.8541 298.943 49.1707H296.943C296.943 54.1587 298.072 58.4231 300.389 61.9067C302.708 65.3923 306.164 68.0185 310.687 69.8147L311.426 67.956ZM297.947 50.1707L321.009 50.0777L321 48.0777L297.939 48.1707L297.947 50.1707ZM320.005 49.0777C320.005 51.3595 320.504 53.324 321.581 54.8971C322.665 56.4781 324.27 57.5717 326.311 58.2149L326.912 56.3074C325.215 55.7727 324.017 54.9134 323.231 53.7666C322.44 52.6119 322.005 51.0736 322.005 49.0777H320.005ZM326.33 58.2206C330.241 59.3697 334.771 59.935 339.906 59.935V57.935C334.911 57.935 330.579 57.3844 326.893 56.3017L326.33 58.2206ZM339.906 59.935C344.764 59.935 348.973 59.2083 352.503 57.7174L351.725 55.875C348.503 57.2358 344.573 57.935 339.906 57.935V59.935ZM352.498 57.7198C354.336 56.9569 355.791 55.9221 356.785 54.5775C357.786 53.2233 358.269 51.6217 358.269 49.8217H356.269C356.269 51.2454 355.894 52.4181 355.176 53.3887C354.452 54.369 353.329 55.2095 351.731 55.8725L352.498 57.7198ZM358.269 49.8217V49.7287H356.269V49.8217H358.269ZM358.269 49.7287C358.269 48.6184 357.938 47.6137 357.262 46.7599C356.598 45.921 355.646 45.2828 354.484 44.8051L353.724 46.6548C354.672 47.045 355.303 47.5073 355.694 48.0012C356.073 48.4804 356.269 49.0411 356.269 49.7287H358.269ZM354.484 44.8051C352.272 43.895 349.908 43.3456 347.398 43.152L347.244 45.1461C349.558 45.3245 351.716 45.8289 353.724 46.6548L354.484 44.8051ZM347.398 43.152C344.961 42.9641 342.047 42.8395 338.658 42.7772L338.621 44.7769C341.985 44.8387 344.858 44.9621 347.244 45.1461L347.398 43.152ZM338.639 42.7771H331.857V44.7771H338.639V42.7771ZM331.857 42.7771C325.384 42.7771 319.774 42.3762 315.02 41.5818L314.69 43.5545C319.582 44.3719 325.307 44.7771 331.857 44.7771V42.7771ZM315.034 41.5843C310.427 40.7449 306.59 38.9553 303.486 36.2363L302.168 37.7408C305.575 40.7254 309.756 42.6555 314.676 43.5519L315.034 41.5843ZM303.486 36.2363C300.506 33.6261 298.943 29.7218 298.943 24.3414H296.943C296.943 30.1202 298.637 34.6474 302.168 37.7408L303.486 36.2363ZM298.943 24.3414C298.943 19.6495 299.966 15.8669 301.939 12.9255C303.907 9.99086 306.878 7.80792 310.931 6.40895L310.278 4.51843C305.89 6.03326 302.53 8.45351 300.278 11.8115C298.031 15.1626 296.943 19.3619 296.943 24.3414H298.943ZM310.935 6.40753C319.311 3.47545 328.843 2 339.544 2V0C328.661 0 318.9 1.50034 310.274 4.51985L310.935 6.40753ZM339.544 2C349.559 2 358.683 3.68533 366.931 7.04091L367.684 5.18839C359.171 1.72443 349.786 0 339.544 0V2ZM366.931 7.04091C370.961 8.68067 373.926 11.0542 375.892 14.1383C377.862 17.2277 378.878 21.1058 378.878 25.8293H380.878C380.878 20.8194 379.799 16.5451 377.579 13.063C375.355 9.57557 372.035 6.9584 367.684 5.18839L366.931 7.04091ZM379.878 24.8293H357.179V26.8293H379.878V24.8293ZM358.179 25.8293C358.179 24.0819 357.69 22.5189 356.69 21.1845C355.7 19.8619 354.252 18.8226 352.421 18.0301L351.627 19.8655C353.233 20.5609 354.362 21.4124 355.09 22.3836C355.808 23.3431 356.179 24.4769 356.179 25.8293H358.179ZM352.441 18.039C348.914 16.42 344.648 15.5342 339.672 15.3447L339.596 17.3432C344.388 17.5257 348.381 18.3757 351.607 19.8566L352.441 18.039ZM339.634 15.3439C334.317 15.3439 329.769 15.9716 326.016 17.2578L326.664 19.1498C330.147 17.9562 334.461 17.3439 339.634 17.3439V15.3439ZM326.016 17.2578C324.115 17.9095 322.592 18.7797 321.537 19.9189C320.461 21.0805 319.914 22.478 319.914 24.0624H321.914C321.914 22.9811 322.271 22.0692 323.004 21.2779C323.758 20.4642 324.948 19.738 326.664 19.1498L326.016 17.2578ZM319.914 24.0624C319.914 25.7012 320.464 27.1223 321.582 28.2528C322.675 29.358 324.245 30.1208 326.186 30.6115L326.676 28.6725C324.939 28.2333 323.75 27.6012 323.004 26.8466C322.283 26.1172 321.914 25.2135 321.914 24.0624H319.914ZM326.186 30.6115C329.959 31.5656 334.203 32.0369 338.911 32.0369V30.0369C334.333 30.0369 330.258 29.5783 326.676 28.6725L326.186 30.6115ZM338.92 32.0369L348.778 31.9439L348.759 29.944L338.901 30.037L338.92 32.0369ZM427.56 2.55796C435.689 2.55796 442.985 4.11315 449.467 7.2033L450.328 5.39797C443.545 2.16455 435.95 0.55796 427.56 0.55796V2.55796ZM449.477 7.20802C456.022 10.2398 461.089 14.4361 464.715 19.7876L466.37 18.6659C462.52 12.9822 457.156 8.561 450.317 5.39325L449.477 7.20802ZM464.722 19.7981C468.399 25.0799 470.24 31.0476 470.24 37.7325H472.24C472.24 30.6543 470.283 24.2848 466.363 18.6554L464.722 19.7981ZM470.24 37.7325C470.24 44.3533 468.4 50.2905 464.722 55.5738L466.363 56.7166C470.281 51.0887 472.24 44.7507 472.24 37.7325H470.24ZM464.718 55.58C461.09 60.8747 456.048 65.074 449.557 68.1687L450.418 69.974C457.191 66.7451 462.519 62.327 466.367 56.7104L464.718 55.58ZM449.564 68.1654C443.081 71.1957 435.782 72.721 427.65 72.721V74.721C436.037 74.721 443.63 73.1465 450.411 69.9773L449.564 68.1654ZM427.65 72.721C419.825 72.721 412.613 71.198 406.001 68.1625L405.167 69.9801C412.059 73.1442 419.558 74.721 427.65 74.721V72.721ZM406.008 68.1657C399.392 65.0677 394.164 60.8617 390.294 55.5559L388.678 56.7345C392.767 62.34 398.271 66.7514 405.16 69.977L406.008 68.1657ZM390.301 55.5662C386.503 50.2174 384.608 44.2822 384.608 37.7325H382.608C382.608 44.6979 384.632 51.0378 388.671 56.7243L390.301 55.5662ZM384.608 37.7325C384.608 31.1188 386.504 25.1529 390.301 19.8058L388.671 18.6477C384.631 24.3359 382.608 30.7071 382.608 37.7325H384.608ZM390.297 19.8117C394.168 14.4449 399.364 10.2419 405.914 7.20802L405.073 5.39325C398.238 8.55894 392.763 12.9734 388.675 18.6418L390.297 19.8117ZM405.917 7.20627C412.528 4.11077 419.738 2.55796 427.56 2.55796V0.55796C419.465 0.55796 411.963 2.16693 405.069 5.395L405.917 7.20627ZM427.65 57.3312C431.179 57.3312 434.553 56.5523 437.762 54.9995L436.891 53.1992C433.95 54.6222 430.874 55.3312 427.65 55.3312V57.3312ZM437.755 55.0028C441.045 53.4416 443.714 51.189 445.746 48.2516L444.101 47.114C442.273 49.7563 439.878 51.7813 436.898 53.1959L437.755 55.0028ZM445.746 48.2516C447.806 45.2729 448.817 41.7514 448.817 37.7325H446.817C446.817 41.4011 445.899 44.513 444.101 47.114L445.746 48.2516ZM448.817 37.7325C448.817 33.707 447.772 30.1811 445.647 27.2015L444.019 28.3628C445.873 30.9628 446.817 34.0705 446.817 37.7325H448.817ZM445.661 27.2218C443.628 24.2174 440.953 21.9575 437.65 20.4553L436.822 22.2759C439.79 23.6255 442.178 25.6433 444.004 28.3425L445.661 27.2218ZM437.665 20.4622C434.4 18.9125 430.998 18.1338 427.469 18.1338V20.1338C430.693 20.1338 433.802 20.8429 436.807 22.269L437.665 20.4622ZM427.469 18.1338C423.883 18.1338 420.478 18.9114 417.266 20.4655L418.138 22.2658C421.076 20.844 424.183 20.1338 427.469 20.1338V18.1338ZM417.266 20.4655C414.032 22.0307 411.395 24.3184 409.368 27.3148L411.024 28.4355C412.856 25.7283 415.223 23.6763 418.138 22.2658L417.266 20.4655ZM409.365 27.3186C407.372 30.2933 406.392 33.7784 406.392 37.7325H408.392C408.392 34.1231 409.282 31.0366 411.027 28.4317L409.365 27.3186ZM406.392 37.7325C406.392 41.7514 407.404 45.2729 409.464 48.2516L411.109 47.114C409.31 44.513 408.392 41.4011 408.392 37.7325H406.392ZM409.464 48.2516C411.492 51.1844 414.128 53.437 417.357 54.9995L418.228 53.1992C415.308 51.786 412.939 49.7608 411.109 47.114L409.464 48.2516ZM417.364 55.0028C420.631 56.5536 424.064 57.3312 427.65 57.3312V55.3312C424.363 55.3312 421.224 54.6209 418.221 53.1959L417.364 55.0028ZM531.224 71.1276L512.685 48.9021L511.149 50.1832L529.688 72.4087L531.224 71.1276ZM511.917 48.5427H498.08V50.5427H511.917V48.5427ZM497.08 49.5427V71.7681H499.08V49.5427H497.08ZM498.08 70.7681H476.737V72.7681H498.08V70.7681ZM477.737 71.7681V2.95286H475.737V71.7681H477.737ZM476.737 3.95286H527.291V1.95286H476.737V3.95286ZM527.291 3.95286C532.784 3.95286 537.584 4.89405 541.713 6.74794L542.532 4.92339C538.1 2.93354 533.012 1.95286 527.291 1.95286V3.95286ZM541.718 6.75006C545.91 8.60633 549.1 11.1901 551.333 14.4869L552.989 13.3653C550.519 9.71859 547.016 6.90874 542.527 4.92128L541.718 6.75006ZM551.344 14.5036C553.626 17.7302 554.778 21.4922 554.778 25.8293H556.778C556.778 21.115 555.518 16.9416 552.977 13.3487L551.344 14.5036ZM554.778 25.8293V26.2013H556.778V25.8293H554.778ZM554.778 26.2013C554.778 31.887 553.154 36.5074 549.962 40.1413L551.465 41.4612C555.026 37.4076 556.778 32.2947 556.778 26.2013H554.778ZM549.957 40.1481C546.807 43.7987 542.401 46.2785 536.662 47.5432L537.092 49.4963C543.17 48.1571 547.988 45.4913 551.471 41.4545L549.957 40.1481ZM536.11 49.1613L555.554 72.4097L557.088 71.1266L537.644 47.8782L536.11 49.1613ZM556.321 70.7681H530.456V72.7681H556.321V70.7681ZM535.797 26.3873C535.797 23.8609 535.267 21.7937 533.996 20.4102L532.523 21.7631C533.302 22.6114 533.797 24.0779 533.797 26.3873H535.797ZM534.016 20.4327C532.885 19.124 531.399 18.3349 529.618 18.053L529.305 20.0285C530.659 20.2426 531.705 20.8174 532.503 21.7406L534.016 20.4327ZM529.618 18.053C527.971 17.7926 525.617 17.6688 522.588 17.6688V19.6688C525.588 19.6688 527.816 19.793 529.305 20.0285L529.618 18.053ZM522.588 17.6688H519.333V19.6688H522.588V17.6688ZM519.305 17.6692C514.858 17.7928 507.786 17.8548 498.08 17.8548V19.8548C507.788 19.8548 514.884 19.7928 519.36 19.6684L519.305 17.6692ZM497.08 18.8548V33.6408H499.08V18.8548H497.08ZM522.588 34.6408C525.617 34.6408 527.971 34.517 529.618 34.2565L529.305 32.2811C527.816 32.5166 525.588 32.6408 522.588 32.6408V34.6408ZM529.618 34.2565C531.366 33.9799 532.84 33.275 533.977 32.1061L532.543 30.7117C531.75 31.5267 530.692 32.0617 529.305 32.2811L529.618 34.2565ZM533.977 32.1061C535.262 30.7842 535.797 28.8002 535.797 26.3873H533.797C533.797 28.562 533.307 29.9258 532.543 30.7117L533.977 32.1061ZM610.89 31.9439C616.753 31.9439 621.84 32.3748 626.161 33.227L626.548 31.2648C622.067 30.381 616.844 29.9439 610.89 29.9439V31.9439ZM626.177 33.2299C630.476 34.0065 634.003 35.6984 636.8 38.2812L638.157 36.8118C635.045 33.939 631.157 32.0971 626.532 31.2618L626.177 33.2299ZM636.807 38.288C639.557 40.7761 641 44.4401 641 49.4497H643C643 44.044 641.429 39.7725 638.149 36.805L636.807 38.288ZM641 49.4497C641 54.11 639.992 57.9415 638.037 61.0004C636.086 64.0544 633.142 66.4131 629.141 68.053L629.899 69.9037C634.218 68.1338 637.514 65.5329 639.723 62.0773C641.928 58.6266 643 54.3987 643 49.4497H641ZM629.144 68.0516C621.021 71.344 611.867 73 601.666 73V75C612.084 75 621.499 73.3082 629.896 69.9051L629.144 68.0516ZM601.666 73C591.529 73 582.158 71.3143 573.542 67.9537L572.815 69.817C581.683 73.2759 591.304 75 601.666 75V73ZM573.548 67.956C569.329 66.2805 566.229 63.885 564.176 60.799C562.122 57.711 561.065 53.8541 561.065 49.1707H559.065C559.065 54.1587 560.194 58.4231 562.511 61.9067C564.829 65.3923 568.286 68.0185 572.809 69.8147L573.548 67.956ZM560.069 50.1707L583.13 50.0777L583.122 48.0777L560.061 48.1707L560.069 50.1707ZM582.126 49.0777C582.126 51.3595 582.625 53.324 583.703 54.8971C584.787 56.4781 586.392 57.5717 588.433 58.2149L589.034 56.3074C587.337 55.7727 586.139 54.9134 585.353 53.7666C584.562 52.6119 584.126 51.0736 584.126 49.0777H582.126ZM588.452 58.2206C592.363 59.3697 596.893 59.935 602.027 59.935V57.935C597.033 57.935 592.701 57.3844 589.015 56.3017L588.452 58.2206ZM602.027 59.935C606.886 59.935 611.095 59.2083 614.625 57.7174L613.847 55.875C610.625 57.2358 606.695 57.935 602.027 57.935V59.935ZM614.62 57.7198C616.458 56.9569 617.913 55.9221 618.907 54.5775C619.907 53.2233 620.391 51.6217 620.391 49.8217H618.391C618.391 51.2454 618.016 52.4181 617.298 53.3887C616.574 54.369 615.451 55.2095 613.853 55.8725L614.62 57.7198ZM620.391 49.8217V49.7287H618.391V49.8217H620.391ZM620.391 49.7287C620.391 48.6184 620.06 47.6137 619.384 46.7599C618.72 45.921 617.768 45.2828 616.606 44.8051L615.845 46.6548C616.794 47.045 617.425 47.5073 617.816 48.0012C618.195 48.4804 618.391 49.0411 618.391 49.7287H620.391ZM616.606 44.8051C614.394 43.895 612.03 43.3456 609.52 43.152L609.366 45.1461C611.68 45.3245 613.838 45.8289 615.845 46.6548L616.606 44.8051ZM609.52 43.152C607.083 42.9641 604.169 42.8395 600.78 42.7772L600.743 44.7769C604.107 44.8387 606.98 44.9621 609.366 45.1461L609.52 43.152ZM600.761 42.7771H593.979V44.7771H600.761V42.7771ZM593.979 42.7771C587.506 42.7771 581.896 42.3762 577.142 41.5818L576.812 43.5545C581.704 44.3719 587.429 44.7771 593.979 44.7771V42.7771ZM577.156 41.5843C572.549 40.7449 568.712 38.9553 565.608 36.2363L564.29 37.7408C567.697 40.7254 571.878 42.6555 576.798 43.5519L577.156 41.5843ZM565.608 36.2363C562.628 33.6261 561.065 29.7218 561.065 24.3414H559.065C559.065 30.1202 560.759 34.6474 564.29 37.7408L565.608 36.2363ZM561.065 24.3414C561.065 19.6495 562.088 15.8669 564.061 12.9255C566.029 9.99086 569 7.80792 573.053 6.40895L572.4 4.51843C568.012 6.03326 564.652 8.45351 562.4 11.8115C560.153 15.1626 559.065 19.3619 559.065 24.3414H561.065ZM573.057 6.40753C581.433 3.47545 590.965 2 601.666 2V0C590.783 0 581.022 1.50034 572.396 4.51985L573.057 6.40753ZM601.666 2C611.681 2 620.805 3.68533 629.053 7.04091L629.806 5.18839C621.293 1.72443 611.908 0 601.666 0V2ZM629.053 7.04091C633.083 8.68067 636.048 11.0542 638.014 14.1383C639.984 17.2277 641 21.1058 641 25.8293H643C643 20.8194 641.921 16.5451 639.701 13.063C637.477 9.57557 634.157 6.9584 629.806 5.18839L629.053 7.04091ZM642 24.8293H619.301V26.8293H642V24.8293ZM620.301 25.8293C620.301 24.0819 619.812 22.5189 618.812 21.1845C617.822 19.8619 616.374 18.8226 614.543 18.0301L613.749 19.8655C615.355 20.5609 616.484 21.4124 617.212 22.3836C617.93 23.3431 618.301 24.4769 618.301 25.8293H620.301ZM614.563 18.039C611.036 16.42 606.77 15.5342 601.794 15.3447L601.718 17.3432C606.51 17.5257 610.503 18.3757 613.729 19.8566L614.563 18.039ZM601.756 15.3439C596.439 15.3439 591.89 15.9716 588.138 17.2578L588.786 19.1498C592.269 17.9562 596.583 17.3439 601.756 17.3439V15.3439ZM588.138 17.2578C586.237 17.9095 584.714 18.7797 583.659 19.9189C582.583 21.0805 582.036 22.478 582.036 24.0624H584.036C584.036 22.9811 584.393 22.0692 585.126 21.2779C585.88 20.4642 587.07 19.738 588.786 19.1498L588.138 17.2578ZM582.036 24.0624C582.036 25.7012 582.586 27.1223 583.704 28.2528C584.797 29.358 586.367 30.1208 588.307 30.6115L588.798 28.6725C587.061 28.2333 585.872 27.6012 585.126 26.8466C584.405 26.1172 584.036 25.2135 584.036 24.0624H582.036ZM588.307 30.6115C592.081 31.5656 596.325 32.0369 601.033 32.0369V30.0369C596.455 30.0369 592.38 29.5783 588.798 28.6725L588.307 30.6115ZM601.042 32.0369L610.9 31.9439L610.881 29.944L601.023 30.037L601.042 32.0369ZM498.08 34.6408H522.588V32.6408H498.08V34.6408Z" fill="white" fill-opacity="0.1" mask="url(#path-1-outside-1_722_1294)"/>
</svg>
