<svg width="25" height="19" viewBox="0 0 25 19" fill="none" xmlns="http://www.w3.org/2000/svg">
<path d="M20.85 1.82984C19.3478 1.14029 17.7382 0.632555 16.0543 0.342096C16.0234 0.336379 15.9925 0.350102 15.9777 0.37869C15.7708 0.746909 15.541 1.22834 15.3809 1.6057C13.5701 1.33469 11.7684 1.33469 9.99418 1.6057C9.83299 1.21919 9.5952 0.746909 9.38714 0.37869C9.37113 0.351246 9.34027 0.337522 9.31055 0.342096C7.62776 0.632555 6.017 1.14029 4.51483 1.82984C4.50225 1.83556 4.49082 1.8447 4.48282 1.85728C1.42819 6.42228 0.59134 10.8752 1.00175 15.2733C1.00404 15.295 1.01547 15.3156 1.03262 15.3281C3.04808 16.809 5.00069 17.7079 6.9167 18.3036C6.94756 18.3128 6.97957 18.3013 6.999 18.2762C7.45171 17.6575 7.85641 17.0046 8.2028 16.3173C8.22337 16.2773 8.20278 16.2293 8.16163 16.2132C7.52029 15.9697 6.91096 15.6735 6.32335 15.3373C6.27648 15.3099 6.27307 15.2435 6.31537 15.2115C6.43884 15.1189 6.56229 15.0228 6.68004 14.9256C6.70177 14.9073 6.73148 14.9039 6.75663 14.9153C10.6126 16.6764 14.7876 16.6764 18.5979 14.9153C18.6231 14.9028 18.6528 14.9073 18.6745 14.9245C18.7922 15.0217 18.9157 15.1189 19.0403 15.2115C19.0826 15.2435 19.0803 15.3099 19.0335 15.3373C18.447 15.6804 17.8365 15.9708 17.1941 16.2132C17.1518 16.2293 17.1335 16.2773 17.154 16.3185C17.5084 17.0034 17.912 17.6564 18.3567 18.2762C18.375 18.3025 18.4081 18.3139 18.439 18.3048C20.3641 17.709 22.3167 16.8102 24.3322 15.3293C24.3493 15.3167 24.3608 15.2961 24.3631 15.2755C24.8546 10.1914 23.54 5.77504 20.8797 1.85957C20.8729 1.84699 20.8626 1.8367 20.8489 1.83098L20.85 1.82984ZM8.77666 12.5951C7.61517 12.5951 6.65947 11.5293 6.65947 10.22C6.65947 8.91062 7.59802 7.84484 8.77666 7.84484C9.9553 7.84484 10.9133 8.92091 10.8939 10.22C10.8939 11.5293 9.9553 12.5951 8.77666 12.5951ZM16.6064 12.5951C15.4449 12.5951 14.4893 11.5293 14.4893 10.22C14.4893 8.91062 15.4278 7.84484 16.6064 7.84484C17.7851 7.84484 18.7431 8.92091 18.7236 10.22C18.7236 11.5293 17.7954 12.5951 16.6064 12.5951Z" fill="white"/>
</svg>
