<svg width="814" height="145" viewBox="0 0 814 145" fill="none" xmlns="http://www.w3.org/2000/svg">
<path d="M479.551 4.50765V5.00765H479.051V41.4408V41.6229V42.0678V42.1229H479.551H536.732V139.81V140.31H537.232H582.135H582.635V139.81V42.1229H639.086H639.586V41.6229V5.00765V4.38059L639.029 4.50765H479.551ZM146.249 5.00765V4.50765H145.749H1H0.5V5.00765V139.81V140.31H1H46.0858H46.5858V139.81V89.3038H130.416H130.916V88.8038V57.107V56.607H130.416H46.5858V38.1153H145.749H146.249V37.6153V5.00765ZM309.895 140.31H310.736L310.334 139.572L237.139 4.76906L236.997 4.50765H236.699H190.518H190.221L190.079 4.76906L116.883 139.572L116.482 140.31H117.322H162.773H163.07L163.212 140.049L175.665 117.175H251.552L264.005 140.049L264.147 140.31H264.444H309.895ZM307.925 35.8597L307.923 35.8627C299.95 46.7575 295.962 59.0054 295.962 72.5911C295.962 85.9379 300.013 98.065 308.108 108.958C316.196 119.843 327.158 128.395 340.977 134.619L340.979 134.62C354.921 140.845 370.264 143.954 386.998 143.954C402.14 143.954 415.772 141.577 427.886 136.814C439.997 132.053 449.982 125.332 457.827 116.646L457.83 116.643C465.674 107.836 470.945 97.6199 473.641 86.0022L473.783 85.3892H473.154H426.243H425.923L425.789 85.6802C422.426 92.9912 417.207 98.6197 410.119 102.576L410.116 102.578C403.136 106.541 395.494 108.524 387.181 108.524C379.701 108.524 372.65 107.14 366.022 104.375C359.528 101.494 354.245 97.3574 350.162 91.9661C346.095 86.4733 344.055 80.0223 344.055 72.5911C344.055 65.1598 346.095 58.7717 350.159 53.4025C354.364 47.8868 359.771 43.6885 366.389 40.8065C373.142 37.9182 380.072 36.4758 387.181 36.4758C392.231 36.4758 397.41 37.3758 402.718 39.1816C408.012 40.983 412.763 43.684 416.974 47.2857L416.98 47.2906L416.986 47.2954C421.303 50.766 424.349 54.8841 426.14 59.651L426.262 59.9752H426.608H473.337H473.958L473.825 59.3681C471.252 47.6275 466.041 37.4081 458.193 28.7195C450.347 19.911 440.301 13.129 428.068 8.36764C415.833 3.4838 402.141 1.04649 386.998 1.04649C370.143 1.04649 354.74 4.15508 340.797 10.38C326.977 16.4829 316.014 24.9743 307.925 35.8597ZM750.208 59.1573L750.204 59.1573L730.312 59.3395C730.312 59.3395 730.311 59.3395 730.31 59.3395C720.973 59.3394 712.618 58.4315 705.242 56.6214C701.579 55.7226 698.891 54.3874 697.122 52.6515C695.367 50.929 694.488 48.783 694.488 46.1771C694.488 43.6964 695.35 41.5576 697.088 39.7366C698.837 37.9037 701.492 36.3746 705.098 35.1751C712.331 32.7689 721.216 31.558 731.763 31.5573C741.572 31.9207 749.838 33.6124 756.576 36.6148L756.586 36.6189C760 38.0533 762.52 39.8599 764.187 42.0195C765.849 44.1724 766.684 46.7044 766.684 49.6382V50.1382H767.184H813H813.5V49.6382C813.5 40.0306 811.369 31.9445 807.075 25.4089C802.78 18.8716 796.347 13.9246 787.811 10.5541C770.831 3.84887 752.089 0.5 731.59 0.5C709.764 0.5 690.238 3.42048 673.018 9.27052C664.42 12.1518 657.934 16.7172 653.602 22.9855C649.272 29.252 647.125 37.1763 647.125 46.7236C647.125 57.7578 650.446 66.1733 657.158 71.879C663.805 77.5302 671.982 81.2068 681.671 82.9204L681.678 82.9216C691.447 84.5058 702.914 85.2962 716.075 85.2962H729.76C736.567 85.4175 742.396 85.6601 747.251 86.0235C752.071 86.3842 756.584 87.4059 760.793 89.086C762.87 89.9155 764.387 90.9509 765.382 92.1711C766.37 93.3831 766.867 94.8034 766.867 96.4548V96.6369C766.867 99.697 766.029 102.305 764.368 104.486C762.703 106.673 760.185 108.463 756.775 109.836L756.773 109.837C750.033 112.599 741.887 113.989 732.32 113.989C722.135 113.989 713.24 112.9 705.63 110.731C701.943 109.603 699.218 107.746 697.408 105.184C695.597 102.617 694.671 99.2952 694.671 95.1796V94.6777L694.169 94.6796L647.623 94.8618L647.125 94.8637V95.3618C647.125 104.913 649.35 112.972 653.829 119.508C658.309 126.044 665.016 131.018 673.912 134.447L673.915 134.449C691.622 141.151 710.848 144.5 731.59 144.5C752.452 144.5 771.255 141.213 787.993 134.628L787.995 134.628C796.469 131.257 802.856 126.341 807.12 119.865C811.384 113.39 813.5 105.395 813.5 95.9083C813.5 85.6034 810.423 77.6775 804.203 72.2154C798.163 66.8036 790.592 63.3083 781.512 61.7158C772.59 60.0086 762.154 59.1573 750.208 59.1573ZM234.582 85.7535H192.639L213.698 47.223L234.582 85.7535Z" stroke="white" stroke-opacity="0.1"/>
</svg>
