<svg width="21" height="17" viewBox="0 0 21 17" fill="none" xmlns="http://www.w3.org/2000/svg">
<path d="M1.42719 7.76584C1.47292 7.74297 1.51867 7.72124 1.56325 7.70066C2.33834 7.34159 3.12372 7.00539 3.90796 6.66919C3.95026 6.66919 4.02112 6.62002 4.06113 6.60401C4.12172 6.57771 4.18232 6.55255 4.24291 6.52625C4.35951 6.47593 4.47613 6.42676 4.59159 6.37645C4.8248 6.27696 5.05686 6.17747 5.29007 6.07798L6.68591 5.47991C7.61648 5.08196 8.54821 4.68286 9.47877 4.28491C10.4093 3.88696 11.341 3.48787 12.2716 3.08992C13.2022 2.69196 14.1339 2.29288 15.0644 1.89492C15.995 1.49697 16.9267 1.09788 17.8573 0.699927C18.0642 0.610731 18.2883 0.478077 18.5101 0.439197C18.6964 0.406034 18.8782 0.341999 19.0656 0.306549C19.4212 0.239081 19.8133 0.211638 20.154 0.359155C20.2717 0.410614 20.3803 0.482656 20.4706 0.572996C20.9028 1.00068 20.8422 1.70281 20.7507 2.30431C20.1139 6.49651 19.4772 10.6899 18.8393 14.8821C18.7524 15.4573 18.6335 16.0885 18.1797 16.4522C17.7955 16.7598 17.2491 16.7941 16.7747 16.6637C16.3002 16.5322 15.8818 16.2566 15.4714 15.9856C13.7692 14.8581 12.0658 13.7305 10.3636 12.603C9.95892 12.3354 9.5085 11.9855 9.51307 11.4995C9.51536 11.2067 9.69025 10.946 9.86859 10.7139C11.3479 8.78359 13.4823 7.45709 15.0702 5.61599C15.2942 5.35641 15.4703 4.88756 15.1628 4.73776C14.9798 4.64856 14.7695 4.76977 14.6026 4.88527C12.5037 6.34328 10.4059 7.80243 8.30699 9.26044C7.62221 9.73616 6.90429 10.2256 6.07889 10.3422C5.34039 10.4474 4.59731 10.2416 3.88281 10.0312C3.28377 9.85508 2.68586 9.6744 2.09025 9.48801C1.77359 9.38966 1.44663 9.28332 1.20198 9.06033C0.957339 8.83734 0.816744 8.46225 0.964217 8.16493C1.05682 7.97854 1.2363 7.86075 1.42493 7.7647L1.42719 7.76584Z" fill="#FEFFFC"/>
</svg>
