<svg width="23" height="23" viewBox="0 0 23 23" fill="none" xmlns="http://www.w3.org/2000/svg">
<path d="M23 0H0V23H23V0Z" fill="#2967B0"/>
<path d="M12.2093 10.2531C12.3682 10.0735 12.4993 9.89274 12.663 9.73866C13.1653 9.2643 13.761 9.0253 14.455 9.03136C14.8371 9.035 15.2144 9.06169 15.582 9.16846C16.424 9.41231 16.9129 9.99101 17.1458 10.8136C17.3206 11.4299 17.3533 12.0632 17.3545 12.6977C17.3569 14.0371 17.3509 15.3764 17.3545 16.7158C17.3545 16.8408 17.3193 16.8748 17.1968 16.8735C16.5065 16.8675 15.8162 16.8675 15.1271 16.8735C15.0057 16.8735 14.9791 16.8371 14.9803 16.7219C14.9839 15.4468 14.9851 14.1729 14.9803 12.8979C14.9803 12.5788 14.9584 12.2597 14.8699 11.9491C14.7049 11.3765 14.2948 11.0853 13.6955 11.1169C12.8778 11.1605 12.4519 11.5658 12.3476 12.398C12.3221 12.597 12.3112 12.7959 12.3112 12.9961C12.3112 14.236 12.31 15.4759 12.3149 16.7146C12.3149 16.8384 12.2845 16.8748 12.1584 16.8735C11.4632 16.8675 10.768 16.8687 10.0728 16.8735C9.96123 16.8735 9.92969 16.8444 9.92969 16.7316C9.93333 14.2773 9.93333 11.823 9.92969 9.36864C9.92969 9.24731 9.96972 9.21941 10.0838 9.21941C10.7437 9.22426 11.4037 9.22548 12.0637 9.21941C12.185 9.21941 12.2166 9.25702 12.2142 9.37227C12.2069 9.66587 12.2117 9.95947 12.2117 10.2519L12.2093 10.2531Z" fill="#FDFDFD"/>
<path d="M8.42965 13.0578C8.42965 14.2722 8.42722 15.4866 8.43207 16.6998C8.43207 16.8345 8.39932 16.8757 8.2598 16.8745C7.56948 16.8672 6.88038 16.8685 6.19006 16.8745C6.07966 16.8745 6.04569 16.8478 6.04691 16.7338C6.05055 14.2758 6.05055 11.8179 6.04691 9.3587C6.04691 9.17308 6.12819 9.20462 6.64623 9.28226C7.09391 9.34899 7.55128 9.34171 7.99653 9.258C8.39204 9.18399 8.43207 9.21675 8.43207 9.3866C8.42843 10.6107 8.42965 11.8349 8.42965 13.059V13.0578Z" fill="#FDFDFD"/>
<path d="M8.62289 6.78499C8.62289 7.86353 7.38541 8.65939 6.25956 7.815C5.35208 6.694 6.16007 5.41406 7.24711 5.41406C8.00051 5.41406 8.62167 6.03401 8.62289 6.78499Z" fill="#FDFDFD"/>
</svg>
