<svg width="21" height="36" viewBox="0 0 21 36" fill="none" xmlns="http://www.w3.org/2000/svg">
<path d="M19.9006 19.1506L3.65059 35.4006C3.49961 35.5516 3.32037 35.6713 3.12311 35.753C2.92585 35.8348 2.71442 35.8768 2.5009 35.8768C2.28739 35.8768 2.07596 35.8348 1.8787 35.753C1.68143 35.6713 1.50219 35.5516 1.35122 35.4006C1.20024 35.2496 1.08047 35.0704 0.998764 34.8731C0.917054 34.6759 0.875 34.4644 0.875 34.2509C0.875 34.0374 0.917054 33.826 0.998764 33.6287C1.08047 33.4314 1.20024 33.2522 1.35122 33.1012L16.4536 18.0009L1.35122 2.90059C1.0463 2.59568 0.875 2.18212 0.875 1.7509C0.875 1.31969 1.0463 0.906132 1.35122 0.601216C1.65613 0.2963 2.06969 0.125 2.5009 0.125C2.93212 0.125 3.34568 0.2963 3.65059 0.601216L19.9006 16.8512C20.0517 17.0021 20.1715 17.1814 20.2533 17.3786C20.3351 17.5759 20.3772 17.7874 20.3772 18.0009C20.3772 18.2145 20.3351 18.4259 20.2533 18.6232C20.1715 18.8205 20.0517 18.9997 19.9006 19.1506Z" fill="url(#paint0_linear_752_424)"/>
<defs>
<linearGradient id="paint0_linear_752_424" x1="0.875" y1="18.0009" x2="20.3772" y2="18.0009" gradientUnits="userSpaceOnUse">
<stop stop-color="#00FF85"/>
<stop offset="1" stop-color="#430099"/>
</linearGradient>
</defs>
</svg>
