<svg width="21" height="36" viewBox="0 0 21 36" fill="none" xmlns="http://www.w3.org/2000/svg">
<path d="M19.651 33.1012C19.8019 33.2522 19.9217 33.4314 20.0034 33.6287C20.0851 33.826 20.1272 34.0374 20.1272 34.2509C20.1272 34.4644 20.0851 34.6759 20.0034 34.8731C19.9217 35.0704 19.8019 35.2496 19.651 35.4006C19.5 35.5516 19.3207 35.6713 19.1235 35.753C18.9262 35.8348 18.7148 35.8768 18.5013 35.8768C18.2878 35.8768 18.0763 35.8348 17.8791 35.753C17.6818 35.6713 17.5026 35.5516 17.3516 35.4006L1.10159 19.1506C0.950504 18.9997 0.830646 18.8205 0.748869 18.6232C0.667092 18.4259 0.625 18.2145 0.625 18.0009C0.625 17.7874 0.667092 17.5759 0.748869 17.3786C0.830646 17.1814 0.950504 17.0021 1.10159 16.8512L17.3516 0.601216C17.6565 0.2963 18.0701 0.125 18.5013 0.125C18.9325 0.125 19.346 0.2963 19.651 0.601216C19.9559 0.906132 20.1272 1.31969 20.1272 1.7509C20.1272 2.18212 19.9559 2.59568 19.651 2.90059L4.54862 18.0009L19.651 33.1012Z" fill="url(#paint0_linear_752_426)"/>
<defs>
<linearGradient id="paint0_linear_752_426" x1="0.625" y1="18.0009" x2="20.1272" y2="18.0009" gradientUnits="userSpaceOnUse">
<stop stop-color="#00FF85"/>
<stop offset="1" stop-color="#430099"/>
</linearGradient>
</defs>
</svg>
