<svg width="25" height="18" viewBox="0 0 25 18" fill="none" xmlns="http://www.w3.org/2000/svg">
<path d="M0.125 1.25C0.125 0.976495 0.233649 0.714193 0.427046 0.520796C0.620443 0.327399 0.882745 0.21875 1.15625 0.21875H23.8438C24.1173 0.21875 24.3796 0.327399 24.573 0.520796C24.7664 0.714193 24.875 0.976495 24.875 1.25C24.875 1.5235 24.7664 1.78581 24.573 1.9792C24.3796 2.1726 24.1173 2.28125 23.8438 2.28125H1.15625C0.882745 2.28125 0.620443 2.1726 0.427046 1.9792C0.233649 1.78581 0.125 1.5235 0.125 1.25ZM23.8438 5.375H7.34375C7.07025 5.375 6.80794 5.48365 6.61455 5.67705C6.42115 5.87044 6.3125 6.13275 6.3125 6.40625C6.3125 6.67975 6.42115 6.94206 6.61455 7.13545C6.80794 7.32885 7.07025 7.4375 7.34375 7.4375H23.8438C24.1173 7.4375 24.3796 7.32885 24.573 7.13545C24.7664 6.94206 24.875 6.67975 24.875 6.40625C24.875 6.13275 24.7664 5.87044 24.573 5.67705C24.3796 5.48365 24.1173 5.375 23.8438 5.375ZM23.8438 10.5312H1.15625C0.882745 10.5312 0.620443 10.6399 0.427046 10.8333C0.233649 11.0267 0.125 11.289 0.125 11.5625C0.125 11.836 0.233649 12.0983 0.427046 12.2917C0.620443 12.4851 0.882745 12.5938 1.15625 12.5938H23.8438C24.1173 12.5938 24.3796 12.4851 24.573 12.2917C24.7664 12.0983 24.875 11.836 24.875 11.5625C24.875 11.289 24.7664 11.0267 24.573 10.8333C24.3796 10.6399 24.1173 10.5312 23.8438 10.5312ZM23.8438 15.6875H7.34375C7.07025 15.6875 6.80794 15.7961 6.61455 15.9895C6.42115 16.1829 6.3125 16.4452 6.3125 16.7188C6.3125 16.9923 6.42115 17.2546 6.61455 17.448C6.80794 17.6414 7.07025 17.75 7.34375 17.75H23.8438C24.1173 17.75 24.3796 17.6414 24.573 17.448C24.7664 17.2546 24.875 16.9923 24.875 16.7188C24.875 16.4452 24.7664 16.1829 24.573 15.9895C24.3796 15.7961 24.1173 15.6875 23.8438 15.6875Z" fill="url(#paint0_linear_752_422)"/>
<defs>
<linearGradient id="paint0_linear_752_422" x1="0.125" y1="8.98438" x2="24.875" y2="8.98438" gradientUnits="userSpaceOnUse">
<stop stop-color="#00FF85"/>
<stop offset="1" stop-color="#430099"/>
</linearGradient>
</defs>
</svg>
