<svg width="462" height="462" viewBox="0 0 462 462" fill="none" xmlns="http://www.w3.org/2000/svg">
<path d="M230.945 230.945V1C330.564 1 418.852 65.146 449.636 159.888L230.945 230.945Z" fill="#7000FF" stroke="white"/>
<path d="M230.945 230.946L449.636 159.889C480.42 254.631 446.697 358.421 366.104 416.975L230.945 230.946Z" fill="#3A0085" stroke="white"/>
<path d="M230.943 230.945L366.101 416.975C310.658 457.257 240.137 470.709 173.758 453.666L230.943 230.945Z" fill="#9B4DFF" stroke="white"/>
<path d="M230.946 230.945L173.761 453.666C117.113 439.121 68.1349 403.537 36.7969 354.156L230.946 230.945Z" fill="#5061FF" stroke="white"/>
<path d="M230.945 230.946L36.7959 354.157C10.7769 313.157 -1.59514 264.972 1.45386 216.508L230.945 230.946Z" fill="#00A5BB" stroke="white"/>
<path d="M230.944 230.946L1.45312 216.507C4.50213 168.043 22.8161 121.789 53.7691 84.373L230.944 230.946Z" fill="#005545" stroke="white"/>
<path d="M230.945 230.946L53.7695 84.373C69.1495 65.781 87.3605 49.726 107.735 36.7969L230.945 230.946Z" fill="#00997D" stroke="white"/>
<path d="M230.945 230.946L107.734 36.7965C128.108 23.8673 150.389 14.2254 173.76 8.22461L230.945 230.946Z" fill="#00B65E" stroke="white"/>
<path d="M230.943 230.945L173.758 8.2241C192.441 3.4271 211.654 1 230.943 1V230.945Z" fill="#00FF85" stroke="white"/>
<path d="M231 446C349.741 446 446 349.741 446 231C446 112.259 349.741 16 231 16C112.259 16 16 112.259 16 231C16 349.741 112.259 446 231 446Z" fill="#010101"/>
<path d="M231 428.5C340.076 428.5 428.5 340.076 428.5 231C428.5 121.924 340.076 33.5 231 33.5C121.924 33.5 33.5 121.924 33.5 231C33.5 340.076 121.924 428.5 231 428.5Z" stroke="#BBBBBB"/>
<path d="M70.6602 177.971C82.0992 143.166 104.585 113.045 134.703 92.185C164.821 71.325 200.925 60.866 237.529 62.397C274.134 63.927 309.238 77.364 337.51 100.665C365.781 123.967 385.674 155.859 394.167 191.498C402.66 227.136 399.288 264.573 384.564 298.12C369.839 331.667 344.567 359.492 312.587 377.366C280.607 395.241 243.667 402.188 207.378 397.154C171.089 392.119 137.435 375.377 111.529 349.471" stroke="#BBBBBB" stroke-width="0.5"/>
</svg>
