<svg width="16" height="15" viewBox="0 0 16 15" fill="none" xmlns="http://www.w3.org/2000/svg">
<path d="M14.0312 3.34375H2.15625C1.99878 3.34375 1.84776 3.28119 1.73641 3.16984C1.62506 3.05849 1.5625 2.90747 1.5625 2.75C1.5625 2.59253 1.62506 2.44151 1.73641 2.33016C1.84776 2.21881 1.99878 2.15625 2.15625 2.15625H12.25C12.4075 2.15625 12.5585 2.09369 12.6698 1.98234C12.7812 1.87099 12.8438 1.71997 12.8438 1.5625C12.8438 1.40503 12.7812 1.25401 12.6698 1.14266C12.5585 1.03131 12.4075 0.96875 12.25 0.96875H2.15625C1.68383 0.96875 1.23077 1.15642 0.896716 1.49047C0.562667 1.82452 0.375 2.27758 0.375 2.75V12.25C0.375 12.7224 0.562667 13.1755 0.896716 13.5095C1.23077 13.8436 1.68383 14.0312 2.15625 14.0312H14.0312C14.3462 14.0312 14.6482 13.9061 14.8709 13.6834C15.0936 13.4607 15.2188 13.1587 15.2188 12.8438V4.53125C15.2188 4.21631 15.0936 3.91426 14.8709 3.69156C14.6482 3.46886 14.3462 3.34375 14.0312 3.34375ZM14.0312 12.8438H2.15625C1.99878 12.8438 1.84776 12.7812 1.73641 12.6698C1.62506 12.5585 1.5625 12.4075 1.5625 12.25V4.42957C1.75315 4.49715 1.95398 4.53154 2.15625 4.53125H14.0312V12.8438ZM10.4688 8.39062C10.4688 8.21448 10.521 8.04228 10.6188 7.89582C10.7167 7.74936 10.8558 7.6352 11.0185 7.5678C11.1813 7.50039 11.3604 7.48275 11.5331 7.51711C11.7059 7.55148 11.8646 7.6363 11.9891 7.76086C12.1137 7.88541 12.1985 8.04411 12.2329 8.21687C12.2673 8.38964 12.2496 8.56871 12.1822 8.73145C12.1148 8.89419 12.0006 9.03329 11.8542 9.13115C11.7077 9.22902 11.5355 9.28125 11.3594 9.28125C11.1232 9.28125 10.8966 9.18742 10.7296 9.02039C10.5626 8.85337 10.4688 8.62683 10.4688 8.39062Z" fill="white"/>
</svg>
